Coordinates
version=1
nRows=17
nColumns=38
inDegrees=no

Units are S.I. units (second, meters, Newtons, ...)
If the header above contains a line with 'inDegrees', this indicates whether rotational values are in degrees (yes) or radians (no).

endheader
time	pelvis_tilt	pelvis_list	pelvis_rotation	pelvis_tx	pelvis_ty	pelvis_tz	hip_flexion_r	hip_adduction_r	hip_rotation_r	knee_angle_r	ankle_angle_r	subtalar_angle_r	mtp_angle_r	hip_flexion_l	hip_adduction_l	hip_rotation_l	knee_angle_l	ankle_angle_l	subtalar_angle_l	mtp_angle_l	lumbar_extension	lumbar_bending	lumbar_rotation	arm_flex_r	arm_add_r	arm_rot_r	elbow_flex_r	pro_sup_r	wrist_flex_r	wrist_dev_r	arm_flex_l	arm_add_l	arm_rot_l	elbow_flex_l	pro_sup_l	wrist_flex_l	wrist_dev_l
1.53	0.345504	1.43607	-2.05681	0.698594	-0.229309	0.925818	-0.353564	-0.145819	-0.0816322	0.495874	0.215195	0	0	0.392344	-0.076569	-0.322714	0.464131	0.138204	0	0	-0.186594	-0.0827669	0.146713	-0.0711014	-0.19988	0.0718104	0.619474	1.187	0	0	-0.337068	-0.169346	0.338416	0.557595	0.71357	0	0
1.54	0.395615	1.43553	-2.10664	0.701316	-0.242728	0.925561	-0.33622	-0.160894	-0.0824974	0.544624	0.19166	0	0	0.395223	-0.0690904	-0.323743	0.484635	0.113157	0	0	-0.179533	-0.0897984	0.145177	-0.077003	-0.196621	0.0650728	0.613986	1.18989	0	0	-0.343517	-0.172827	0.344009	0.563079	0.710827	0	0
1.55	0.448794	1.43466	-2.15602	0.704163	-0.255841	0.925675	-0.314693	-0.17449	-0.0829431	0.598818	0.161043	0	0	0.401946	-0.0612687	-0.319467	0.5145	0.105578	0	0	-0.173728	-0.0972899	0.140327	-0.0819972	-0.191773	0.055979	0.607262	1.19439	0	0	-0.348131	-0.178094	0.353023	0.569248	0.708833	0	0
1.56	0.49696	1.43408	-2.19864	0.706982	-0.268788	0.926024	-0.289266	-0.185468	-0.0809139	0.657479	0.124451	0	0	0.410114	-0.0541233	-0.312243	0.548226	0.107965	0	0	-0.168345	-0.103875	0.134489	-0.0874994	-0.186687	0.0472116	0.601288	1.1975	0	0	-0.351521	-0.184743	0.363473	0.576521	0.706282	0	0
1.57	0.535818	1.43265	-2.23154	0.709742	-0.281584	0.926641	-0.262116	-0.194402	-0.0760709	0.718442	0.0838356	0	0	0.414327	-0.0464073	-0.304973	0.575684	0.107494	0	0	-0.16456	-0.109774	0.128497	-0.0933833	-0.18233	0.0411769	0.596937	1.19801	0	0	-0.353839	-0.19166	0.371965	0.584215	0.704148	0	0
1.58	0.577844	1.43237	-2.26796	0.712395	-0.294174	0.927173	-0.229631	-0.201929	-0.0681608	0.782814	0.038318	0	0	0.417345	-0.0390666	-0.300484	0.597634	0.102377	0	0	-0.159314	-0.115211	0.123255	-0.099997	-0.178198	0.0356882	0.593992	1.19712	0	0	-0.355752	-0.199423	0.380803	0.593561	0.70206	0	0
1.59	0.623521	1.4322	-2.3092	0.714941	-0.306515	0.927654	-0.193598	-0.209187	-0.0580993	0.848057	-0.0103371	0	0	0.41678	-0.0315247	-0.300443	0.612099	0.0967645	0	0	-0.153635	-0.120689	0.119405	-0.107269	-0.174848	0.0313681	0.59291	1.19533	0	0	-0.356594	-0.207128	0.388605	0.603084	0.700036	0	0
1.6	0.670101	1.43169	-2.35265	0.717382	-0.318569	0.928099	-0.155872	-0.21614	-0.0465068	0.911773	-0.0603956	0	0	0.412033	-0.0235642	-0.304178	0.619326	0.0945344	0	0	-0.148155	-0.12614	0.116754	-0.114558	-0.172271	0.0281882	0.592987	1.19274	0	0	-0.356314	-0.214731	0.395653	0.612789	0.697314	0	0
1.61	0.715564	1.43009	-2.39628	0.71973	-0.330305	0.928539	-0.117404	-0.224313	-0.0358469	0.973787	-0.111086	0	0	0.403458	-0.0146164	-0.310059	0.621143	0.096385	0	0	-0.143606	-0.132039	0.114842	-0.121372	-0.170123	0.0256541	0.593957	1.18891	0	0	-0.355287	-0.222624	0.402214	0.623579	0.692904	0	0
1.62	0.751028	1.42735	-2.43074	0.722018	-0.341722	0.929161	-0.0804783	-0.231812	-0.0245108	1.03203	-0.162621	0	0	0.391618	-0.00530531	-0.316302	0.619841	0.100907	0	0	-0.141253	-0.137709	0.112612	-0.12638	-0.168754	0.0255055	0.594087	1.1847	0	0	-0.353104	-0.229309	0.405519	0.633048	0.689305	0	0
1.63	0.776603	1.4237	-2.45543	0.724243	-0.352845	0.930019	-0.0457372	-0.238518	-0.0137794	1.08564	-0.213068	0	0	0.377784	0.00468678	-0.320669	0.617045	0.106876	0	0	-0.140932	-0.143093	0.109612	-0.129456	-0.167947	0.0276302	0.59265	1.1806	0	0	-0.349169	-0.234461	0.406552	0.63917	0.68748	0	0
1.64	0.791361	1.4197	-2.4693	0.726351	-0.363681	0.931186	-0.0132972	-0.243747	-0.00383906	1.1351	-0.252697	0	0	0.362679	0.0150807	-0.321194	0.613748	0.113671	0	0	-0.142474	-0.147708	0.105783	-0.130458	-0.16746	0.0317569	0.589165	1.17685	0	0	-0.343227	-0.238401	0.407171	0.641458	0.687799	0	0
1.65	0.787666	1.41624	-2.46315	0.729664	-0.374255	0.932787	0.0184344	-0.260529	0.00940147	1.1779	-0.260179	0	0	0.345524	0.0255364	-0.317845	0.609368	0.120542	0	0	-0.146732	-0.148081	0.100078	-0.12995	-0.168945	0.0384676	0.583435	1.17228	0	0	-0.33547	-0.240325	0.405691	0.64304	0.691667	0	0
1.66	0.777365	1.41198	-2.45032	0.731617	-0.384803	0.934717	0.0452999	-0.262885	0.0162711	1.22041	-0.254047	0	0	0.326143	0.0356657	-0.31088	0.603718	0.126615	0	0	-0.152232	-0.150183	0.0936344	-0.128785	-0.168498	0.0438884	0.577799	1.1712	0	0	-0.327255	-0.243147	0.401197	0.644152	0.695606	0	0
1.67	0.756119	1.40857	-2.4259	0.733467	-0.39528	0.936936	0.0695019	-0.262916	0.0197804	1.25726	-0.234556	0	0	0.304766	0.0436865	-0.303105	0.5962	0.132209	0	0	-0.158762	-0.150203	0.0867218	-0.128063	-0.167814	0.0470693	0.572737	1.17309	0	0	-0.318192	-0.245478	0.395513	0.644443	0.701295	0	0
1.68	0.726633	1.40611	-2.3924	0.735262	-0.405716	0.93937	0.0915188	-0.260757	0.0200994	1.28792	-0.210409	0	0	0.281862	0.0493707	-0.295766	0.586956	0.137271	0	0	-0.16573	-0.148165	0.0791294	-0.128292	-0.167032	0.0484722	0.56935	1.17686	0	0	-0.308716	-0.247539	0.389654	0.644332	0.708351	0	0
1.69	0.699511	1.40338	-2.36244	0.735745	-0.416164	0.941893	0.110404	-0.244645	0.0121816	1.31593	-0.197462	0	0	0.25783	0.0537698	-0.289689	0.575981	0.141627	0	0	-0.171962	-0.148146	0.0715834	-0.12873	-0.164875	0.0497603	0.567836	1.18102	0	0	-0.299647	-0.250667	0.383888	0.643311	0.716187	0	0
